<svg width="23" height="23" viewBox="0 0 23 23" fill="none" xmlns="http://www.w3.org/2000/svg">
<path d="M21.5 13.0039C22.3284 13.0039 23 12.3323 23 11.5039C23 10.6755 22.3284 10.0039 21.5 10.0039L21.5 13.0039ZM0.439341 10.4432C-0.146446 11.029 -0.146446 11.9788 0.43934 12.5646L9.98528 22.1105C10.5711 22.6963 11.5208 22.6963 12.1066 22.1105C12.6924 21.5247 12.6924 20.575 12.1066 19.9892L3.62132 11.5039L12.1066 3.01862C12.6924 2.43284 12.6924 1.48309 12.1066 0.897304C11.5208 0.311517 10.5711 0.311517 9.98528 0.897304L0.439341 10.4432ZM21.5 10.0039L1.5 10.0039L1.5 13.0039L21.5 13.0039L21.5 10.0039Z" fill="#191A23"/>
</svg>
