<svg width="325" height="648" viewBox="0 0 325 648" fill="none" xmlns="http://www.w3.org/2000/svg">
<path d="M40.2172 167.622L177.945 254.862L22.8217 204.464L170.444 273.841L10.2139 243.219L165.338 293.618L2.55348 283.251L162.784 313.713L0 323.92V322.918L154.795 313.212L2.36671 284.233L2.61703 282.253L157.476 292.115L9.90491 244.17L10.4016 242.237L162.831 271.368L22.3964 205.369L23.1307 203.513L170.701 251.457L39.6821 168.467L40.6426 166.717L181.087 232.721L61.4447 133.944L62.6165 132.328L193.646 215.325L87.3668 102.439L88.732 100.983L208.214 199.753L116.971 74.4316L118.508 73.158L224.799 186.209L149.939 50.2426L151.623 49.1721L242.872 174.652L185.634 30.5123L187.44 29.6617L262.144 165.62L223.578 15.4L225.476 14.7831L282.556 158.908L262.974 5.23002L264.934 4.85471L303.502 154.929V0H304.502V162.837L263.965 5.10362L284.553 166.665L224.546 15.1514L265.083 173.045L186.563 30.1432L246.73 181.657L150.815 49.7603L229.494 192.662L117.779 73.843L213.694 205.58L88.0949 101.753L199.809 220.413L62.0814 133.173L187.84 236.999L40.2172 167.622Z" fill="black"/>
<path d="M305.51 0H304.502L324.93 161.561L325 161.006V153.034L324.93 153.59L305.51 0Z" fill="black"/>
<path d="M325 494.815V486.836L324.93 486.279L304.502 648V485.003L263.965 642.896L284.553 481.176L224.546 632.689L265.083 474.955L186.563 617.697L246.73 466.184L150.815 598.08L229.494 455.338L117.779 574.157L213.694 442.26L88.0949 546.247L199.809 427.428L62.0814 514.828L187.84 411.001L40.2172 480.378L177.945 393.138L22.8217 443.536L170.444 374.159L10.2139 404.621L165.338 354.383L2.55348 364.59L162.784 334.128L0 323.92V324.922L154.795 334.629L2.36671 363.607L2.61606 365.588L157.476 355.877L9.90579 403.67L10.4007 405.604L162.859 376.619L22.3964 442.631L23.1307 444.487L170.701 396.543L39.6821 479.533L40.6426 481.283L181.087 415.279L61.4447 514.056L62.6172 515.672L193.646 432.524L87.3663 545.562L88.7326 547.017L208.214 448.095L116.97 573.569L118.508 574.842L224.789 461.802L149.939 597.598L151.623 598.668L242.872 473.189L185.634 617.328L187.439 618.179L262.144 482.372L223.578 632.44L225.476 633.057L282.558 488.929L262.973 642.77L264.934 643.145L303.502 492.92V648H304.502L305.51 648L324.93 494.259L325 494.815Z" fill="black"/>
</svg>
