<svg width="342" height="368" viewBox="0 0 342 368" fill="none" xmlns="http://www.w3.org/2000/svg">
<path d="M152.509 366.59C146.205 368.744 139.001 364.474 136.495 357.071L97.4964 242.809L120.285 235.014L159.322 349.433C161.828 356.758 158.774 364.435 152.509 366.59Z" fill="black"/>
<path d="M149.103 368C147.262 368 145.383 367.569 143.582 366.668C139.94 364.866 137.043 361.498 135.633 357.345L96.6347 243.084C96.4781 242.653 96.713 242.144 97.1829 241.987L119.971 234.192C120.206 234.113 120.441 234.113 120.637 234.231C120.833 234.348 120.989 234.505 121.068 234.74L160.105 349.159C162.729 356.914 159.44 365.101 152.744 367.412C151.609 367.804 150.356 368 149.103 368ZM98.5925 243.358L137.317 356.797C138.57 360.518 141.154 363.574 144.365 365.14C146.949 366.394 149.729 366.629 152.235 365.767C158.03 363.769 160.849 356.562 158.5 349.707L119.736 236.111L98.5925 243.358Z" fill="black"/>
<path d="M116.251 136.382L42.5216 188.988L13.8208 218.798L2.54414 238.736L2.50498 238.892C0.273136 242.339 1.56526 250.291 5.75487 258.399C9.86617 266.39 15.6611 271.953 19.7333 272.266L19.6158 272.344L41.2687 274.695L81.7943 268.231L167.818 237.443L274.751 255.775L275.495 255.814C248.635 250.8 212.377 214.88 186.026 164.076C159.713 113.31 151.334 63.132 162.885 38.376H162.846L116.838 135.128L116.251 136.382Z" fill="#009EAD"/>
<path d="M293.266 253.603C319.694 239.873 314.584 177.629 281.852 114.577C249.121 51.5247 201.163 11.5412 174.736 25.2711C148.309 39.001 153.419 101.245 186.15 164.297C218.881 227.349 266.839 267.333 293.266 253.603Z" fill="white"/>
<path d="M281.643 257.185C270.132 257.185 256.271 250.761 241.353 238.266C221.031 221.266 201.101 195.06 185.243 164.428C161.241 118.05 151.335 70.4964 160.027 43.2726C162.925 34.1849 167.78 27.8392 174.397 24.4313C187.553 17.6939 206.074 23.4129 226.591 40.5698C246.913 57.57 266.843 83.7754 282.701 114.407C306.742 160.786 316.648 208.339 307.917 235.563C305.019 244.651 300.164 250.996 293.547 254.404C289.983 256.284 285.99 257.185 281.643 257.185ZM186.379 23.4129C182.346 23.4129 178.587 24.2355 175.219 25.9982C168.994 29.171 164.452 35.2033 161.711 43.8601C153.136 70.6922 163.003 117.737 186.809 163.723C219.23 226.279 266.764 266.312 292.803 252.955C299.028 249.782 303.57 243.75 306.311 235.093C314.886 208.261 305.019 161.216 281.213 115.23C252.982 60.782 213.357 23.4129 186.379 23.4129Z" fill="black"/>
<path d="M281.643 257.185C270.131 257.185 256.271 250.761 241.352 238.266C221.031 221.265 201.101 195.06 185.243 164.428C161.241 118.05 151.334 70.4963 160.027 43.2725C162.924 34.1848 167.78 27.8391 174.397 24.4312C183.207 19.8874 194.718 21.0234 207.679 27.6824C220.091 34.0673 233.521 45.3877 246.599 60.3902C246.912 60.7427 246.873 61.2911 246.521 61.6045C246.168 61.9179 245.62 61.8787 245.307 61.5262C218.76 31.0511 191.899 17.4196 175.219 25.9981C168.994 29.1709 164.451 35.2033 161.711 43.86C153.136 70.6922 163.003 117.737 186.809 163.723C215.001 218.132 254.665 255.54 281.604 255.54C285.637 255.54 289.396 254.717 292.763 252.955C298.989 249.782 303.531 243.75 306.272 235.093C314.847 208.261 304.98 161.216 281.173 115.23C274.086 101.52 266.098 88.6325 257.523 76.9204C257.249 76.5286 257.328 75.9803 257.719 75.7061C258.111 75.4319 258.659 75.5102 258.933 75.9019C267.586 87.6924 275.574 100.658 282.739 114.446C306.742 160.785 316.648 208.339 307.916 235.563C305.019 244.65 300.164 250.996 293.546 254.404C289.983 256.284 285.989 257.185 281.643 257.185Z" fill="black"/>
<path d="M233.304 173.339C239.426 170.158 238.248 155.75 230.674 141.159C223.099 126.567 211.995 117.316 205.873 120.497C199.751 123.678 200.928 138.085 208.503 152.677C216.078 167.269 227.181 176.519 233.304 173.339Z" fill="#009EAD"/>
<path d="M230.624 174.848C223.89 174.848 214.492 166.152 207.719 153.03C202.08 142.14 199.77 130.937 201.845 124.474C202.589 122.202 203.803 120.596 205.487 119.734C212.143 116.326 223.537 125.61 231.447 140.847C237.085 151.737 239.395 162.94 237.32 169.403C236.576 171.675 235.362 173.281 233.679 174.143C232.739 174.613 231.721 174.848 230.624 174.848ZM208.541 120.714C207.719 120.714 206.936 120.87 206.27 121.223C204.978 121.889 204.038 123.142 203.451 124.983C201.532 131.016 203.764 141.748 209.207 152.246C216.411 166.152 227.257 175.514 232.856 172.615C234.148 171.949 235.088 170.696 235.675 168.855C237.594 162.783 235.323 152.09 229.92 141.592C223.576 129.41 214.492 120.714 208.541 120.714Z" fill="#009EAD"/>
<path d="M275.692 242.574C265.59 242.574 253.452 236.934 240.374 226.005C222.597 211.12 205.134 188.166 191.273 161.373C170.247 120.792 161.594 79.153 169.19 55.2978C171.735 47.307 176.003 41.7447 181.837 38.7285C195.228 31.8736 214.923 39.7861 235.91 60.4292C236.263 60.7818 236.263 61.291 235.91 61.6435C235.558 61.9961 235.049 61.9961 234.696 61.6435C214.257 41.5488 195.267 33.7146 182.62 40.2562C177.217 43.0373 173.262 48.2471 170.834 55.8071C163.356 79.2313 171.97 120.361 192.8 160.589C217.429 208.182 252.081 240.851 275.653 240.851C279.177 240.851 282.427 240.107 285.402 238.618C290.806 235.837 294.761 230.627 297.188 223.067C304.667 199.643 296.053 158.513 275.222 118.285C268.918 106.142 261.87 94.743 254.274 84.4411C254 84.0493 254.078 83.5009 254.47 83.2267C254.861 82.9526 255.41 83.0309 255.684 83.4226C263.358 93.8421 270.445 105.28 276.788 117.501C297.815 158.082 306.468 199.721 298.872 223.576C296.327 231.567 292.059 237.13 286.225 240.146C283.014 241.752 279.49 242.574 275.692 242.574Z" fill="black"/>
<path d="M41.3086 275.517C41.2695 275.517 41.2303 275.517 41.2303 275.517L19.5775 273.167C19.46 273.167 19.3425 273.128 19.2251 273.05C14.7614 272.344 9.123 266.704 5.0117 258.791C0.626318 250.448 -0.665805 242.3 1.72266 238.462L1.76182 238.344L13.0385 218.367C13.0777 218.289 13.1168 218.249 13.156 218.21L41.8568 188.401C41.8959 188.362 41.9351 188.323 41.9743 188.284L115.508 135.794L162.024 37.9845C162.142 37.7886 162.298 37.632 162.533 37.5536C162.768 37.4753 163.003 37.4753 163.199 37.5928C163.63 37.7886 163.825 38.2979 163.63 38.7288C151.844 63.994 161.163 114.211 186.77 163.645C212.417 213.157 248.166 249.821 275.692 254.874C276.123 254.953 276.436 255.344 276.397 255.814C276.358 256.245 275.966 256.559 275.535 256.598L274.791 256.559C274.752 256.559 274.713 256.559 274.674 256.559L167.937 238.266L82.1084 268.976C82.0692 268.976 81.9909 269.015 81.9517 269.015L41.4261 275.478C41.3869 275.517 41.3478 275.517 41.3086 275.517ZM20.2039 271.522L41.3086 273.794L81.6385 267.331L167.623 236.581C167.78 236.542 167.897 236.503 168.054 236.542L264.141 252.994C238.181 241.595 207.836 207.947 185.322 164.468C162.964 121.301 152.979 77.4689 158.461 49.775L117.035 136.735C116.957 136.852 116.878 136.97 116.761 137.048L43.1098 189.655L14.5264 219.307L3.24972 239.284C3.24972 239.323 3.21056 239.363 3.21056 239.363C1.17449 242.535 2.54492 250.37 6.4996 258.008C10.376 265.49 15.9752 271.13 19.8124 271.404C19.969 271.404 20.0865 271.444 20.2039 271.522Z" fill="black"/>
<path d="M116.368 136.069L162.845 38.3369H162.884C151.333 63.093 159.752 113.271 186.025 164.037C212.376 214.881 248.634 250.8 275.573 255.736L274.829 255.697L168.053 237.404L165.586 236.973C153.174 234.779 136.611 218.641 124.747 195.608C112.57 171.988 110.416 148.447 115.819 137.244L116.368 136.069Z" fill="white"/>
<path d="M275.573 256.598C275.534 256.598 275.573 256.598 275.573 256.598L274.79 256.558C274.751 256.558 274.712 256.558 274.673 256.558L167.896 238.266L165.429 237.835C152.312 235.524 135.671 218.719 123.964 196.039C110.69 170.265 110.025 147.311 115.037 136.891L115.624 135.716L162.101 38.0236C162.219 37.8277 162.375 37.671 162.61 37.5927C162.845 37.5143 163.08 37.5143 163.276 37.6319C163.707 37.8277 163.902 38.3369 163.707 38.7678C151.921 64.0331 161.24 114.25 186.847 163.684C212.494 213.196 248.243 249.86 275.769 254.913C276.2 254.992 276.513 255.383 276.474 255.853C276.356 256.245 276.004 256.598 275.573 256.598ZM158.382 49.7749L117.151 136.46L116.564 137.635C111.591 147.977 113.04 171.087 125.491 195.217C136.964 217.466 153.135 233.918 165.743 236.111L168.209 236.542L264.101 252.994C238.141 241.595 207.795 207.947 185.281 164.467C162.924 121.301 152.939 77.4687 158.382 49.7749Z" fill="black"/>
<path d="M40.1334 275.4C40.0942 275.4 40.0551 275.4 40.0551 275.4L19.5377 273.206C19.4203 273.206 19.3028 273.167 19.1854 273.089C14.7217 272.383 9.0833 266.743 4.972 258.83C0.62577 250.448 -0.666353 242.3 1.72212 238.461L1.76127 238.344L13.038 218.367C13.2729 217.936 13.7819 217.818 14.2126 218.053C14.6433 218.288 14.7608 218.798 14.5259 219.228L3.24917 239.284C3.24917 239.323 3.21002 239.362 3.21002 239.362C1.17394 242.535 2.54438 250.369 6.49905 258.008C10.3754 265.489 15.9746 271.13 19.8118 271.404C19.9293 271.404 20.0859 271.443 20.1642 271.522L40.2117 273.676C40.6816 273.715 41.034 274.146 40.9557 274.616C40.9165 275.047 40.5641 275.4 40.1334 275.4Z" fill="black"/>
<path d="M41.5036 274.538C34.8472 274.068 25.5282 264.628 18.7544 251.584C11.589 237.757 9.90527 223.459 14.2907 218.367L2.58325 238.736L2.50494 238.893C0.273087 242.34 1.56521 250.291 5.75482 258.4C9.86612 266.391 15.6611 271.953 19.7332 272.266L19.6158 272.345L41.5036 274.538Z" fill="white"/>
<path d="M41.5038 275.4C41.4647 275.4 41.4647 275.4 41.4255 275.4C41.2689 275.4 41.0731 275.361 40.9165 275.361L19.5377 273.206C19.4203 273.206 19.3028 273.167 19.1854 273.089C14.7217 272.384 9.0833 266.743 4.972 258.83C0.62577 250.448 -0.666353 242.3 1.72212 238.462L1.76127 238.344L12.0591 220.404C12.4507 219.385 12.9597 218.484 13.5862 217.74C13.8602 217.388 14.3693 217.348 14.7217 217.583C15.0741 217.858 15.1915 218.328 14.9566 218.719L13.5078 221.187C11.1977 227.415 13.4687 239.637 19.4203 251.075C25.8809 263.57 34.6908 272.697 40.9948 273.52L41.4647 273.559C41.9345 273.598 42.2869 274.029 42.2478 274.499C42.2869 275.047 41.9345 275.4 41.5038 275.4ZM20.1642 271.522L35.1215 273.05C29.3657 269.367 23.0226 261.768 17.9715 251.976C13.0771 242.535 10.6495 232.743 11.0411 225.692L3.24917 239.284C3.24917 239.323 3.21002 239.363 3.21002 239.363C1.17394 242.535 2.54438 250.37 6.49905 258.008C10.3754 265.49 15.9746 271.13 19.8118 271.404C19.9293 271.404 20.0859 271.444 20.1642 271.522Z" fill="black"/>
<path d="M80.3452 268.388L82.0681 268.035C72.7491 269.994 58.0268 255.892 47.6506 235.876C37.0395 215.429 35.0426 195.021 42.5604 188.988L41.5816 189.968L14.3687 218.249C9.90496 223.263 11.5495 237.639 18.754 251.544C25.6845 264.941 35.5125 274.499 42.208 274.459L80.3452 268.388Z" fill="black"/>
<path d="M42.1697 275.36C35.0434 275.36 25.1371 265.764 17.9717 251.975C10.6889 237.874 8.84857 223.146 13.7038 217.701L40.4077 189.968C40.8776 189.341 41.4257 188.793 42.0131 188.323C42.3655 188.048 42.8745 188.088 43.1877 188.401C43.501 188.753 43.501 189.263 43.1877 189.576L41.6607 191.182C36.2181 198.468 38.9198 217.113 48.4345 235.484C58.6932 255.305 73.024 268.897 81.7948 267.252L81.9122 267.213C82.3821 267.135 82.8128 267.409 82.9303 267.879C83.0086 268.349 82.7345 268.78 82.2646 268.897C82.2255 268.897 82.1863 268.897 82.1472 268.936L80.5418 269.25H80.5026L42.3655 275.321C42.2871 275.321 42.2088 275.36 42.1697 275.36ZM38.1367 194.825L14.9959 218.876C10.6889 223.733 12.6466 237.913 19.5379 251.192C26.2726 264.197 35.7874 273.598 42.1697 273.637L75.8432 268.27C66.7592 265.058 55.5608 252.955 46.9075 236.307C38.6849 220.443 35.5133 204.304 38.1367 194.825Z" fill="black"/>
<path d="M205.878 120.479C199.731 123.612 200.632 138.145 208.463 152.638C221.58 176.885 232.034 174.025 233.248 173.594C233.287 173.594 233.287 173.634 233.248 173.634L210.734 191.77C204.116 182.486 197.812 172.145 192.017 160.981C186.497 150.288 181.837 139.633 178.156 129.292L205.878 120.479Z" fill="black"/>
<path d="M210.733 192.631C210.694 192.631 210.655 192.631 210.616 192.631C210.381 192.592 210.185 192.475 210.029 192.279C203.255 182.76 196.951 172.341 191.273 161.412C185.831 150.914 181.132 140.221 177.373 129.645C177.295 129.41 177.295 129.174 177.412 128.979C177.53 128.783 177.686 128.626 177.921 128.548L205.643 119.734C206.074 119.617 206.544 119.813 206.7 120.243C206.857 120.674 206.7 121.144 206.309 121.34C204.978 122.006 203.999 123.338 203.411 125.297C201.493 131.446 203.842 142.336 209.285 152.325C222.088 175.984 231.956 173.281 233.013 172.889C233.404 172.733 233.874 172.928 234.07 173.281C234.266 173.634 234.187 174.143 233.874 174.417L211.282 192.436C211.125 192.553 210.929 192.631 210.733 192.631ZM179.292 129.84C183.012 140.064 187.554 150.405 192.8 160.59C198.282 171.166 204.39 181.233 210.929 190.516L230.468 174.77C226.004 174.574 217.586 171.244 207.718 153.03C202.002 142.493 199.653 131.368 201.728 124.67C202.002 123.808 202.315 123.064 202.707 122.359L179.292 129.84Z" fill="black"/>
</svg>
