<svg width="95" height="96" viewBox="0 0 95 96" fill="none" xmlns="http://www.w3.org/2000/svg">
<path d="M71.2725 71.5925C84.3768 58.4829 84.3768 37.2281 71.2725 24.1185C58.1681 11.0089 36.9219 11.0089 23.8175 24.1185C10.7132 37.228 10.7132 58.4829 23.8175 71.5925C36.9218 84.7021 58.1682 84.7021 71.2725 71.5925Z" fill="#009EAD"/>
<path d="M47.5388 82.2732C28.5877 82.2732 13.1213 66.8399 13.1213 47.8419C13.1213 28.8832 28.5485 13.4106 47.5388 13.4106C66.5291 13.4106 81.9563 28.844 81.9563 47.8419C81.9563 66.8007 66.5291 82.2732 47.5388 82.2732ZM47.5388 15.1342C29.5274 15.1342 14.8442 29.7841 14.8442 47.8419C14.8442 65.8606 29.4882 80.5497 47.5388 80.5497C65.5502 80.5497 80.2334 65.8998 80.2334 47.8419C80.2334 29.8233 65.5894 15.1342 47.5388 15.1342Z" fill="#009EAD"/>
<path d="M56.6224 51.1713C54.7429 51.1713 53.0984 52.0723 52.0021 53.4824L40.6862 49.0561C40.6862 48.8994 40.7253 48.7819 40.7253 48.6252C40.7253 48.351 40.6862 48.0768 40.647 47.8026L52.237 42.4362C53.2942 43.6505 54.8604 44.4339 56.6224 44.4731C59.8331 44.4731 62.4956 41.8486 62.4956 38.5974C62.4956 35.3462 59.8722 32.6826 56.6224 32.6826C53.4116 32.6826 50.7491 35.3071 50.7491 38.5583C50.7491 38.8325 50.7882 39.1067 50.8274 39.3809L39.2374 44.7473C38.1802 43.533 36.614 42.7496 34.852 42.7104C31.6413 42.7104 28.9788 45.3348 28.9788 48.586C28.9788 51.8372 31.6022 54.5009 34.852 54.5009C36.7315 54.5009 38.376 53.5999 39.4724 52.1898L50.7883 56.6161C50.7883 56.7728 50.7491 56.8903 50.7491 57.047C50.7491 60.2982 53.3725 62.9618 56.6224 62.9618C59.8331 62.9618 62.4956 60.3373 62.4956 57.0861C62.4565 53.8349 59.8331 51.2105 56.6224 51.1713Z" fill="black"/>
</svg>
