<svg width="103" height="103" viewBox="0 0 103 103" fill="none" xmlns="http://www.w3.org/2000/svg">
<path d="M68.5355 85.5815C87.5118 76.3397 95.4522 53.5529 86.271 34.6857C77.0898 15.8185 54.2636 8.01558 35.2874 17.2573C16.3111 26.4991 8.37066 49.2858 17.5519 68.153C26.7331 87.0202 49.5593 94.8232 68.5355 85.5815Z" fill="#009EAD"/>
<path d="M51.7179 90.3468C47.6457 90.3468 43.4953 89.72 39.4623 88.349C29.5952 85.0587 21.6075 78.1646 16.9872 68.8419C12.3669 59.5584 11.6621 49.0214 14.9903 39.1503C21.8816 18.8205 44.0435 7.73516 64.4433 14.5117C74.3105 17.8021 82.2981 24.6962 86.9185 34.0189C91.5388 43.3024 92.2436 53.8394 88.9154 63.7105C83.3553 80.0056 68.0456 90.3468 51.7179 90.3468ZM52.1094 14.2767C36.4865 14.2767 21.8425 24.1478 16.5565 39.7378C13.3849 49.178 14.0505 59.245 18.4751 68.0976C22.8996 76.9895 30.5349 83.6093 39.9713 86.743C59.4706 93.2062 80.6536 82.6301 87.2317 63.2013C90.4033 53.7611 89.7376 43.6941 85.3131 34.8415C80.8886 25.9497 73.2533 19.3298 63.8169 16.1961C59.9405 14.8643 55.9858 14.2767 52.1094 14.2767Z" fill="black"/>
<path d="M71.3752 45.2611C70.9837 54.7796 54.8908 77.0287 51.0536 82.2385C50.6621 82.7869 49.8398 82.7477 49.4874 82.1601C47.0598 78.243 39.033 65.0816 34.8434 54.4271C33.1597 50.1966 32.1025 46.3579 32.22 43.6551C32.6507 32.8439 41.7738 24.4221 52.5807 24.853C63.3875 25.3622 71.8059 34.4499 71.3752 45.2611Z" fill="black"/>
<path d="M58.1303 50.8264C61.6319 47.3234 61.6319 41.6439 58.1303 38.1409C54.6287 34.6378 48.9514 34.6378 45.4498 38.1408C41.9482 41.6439 41.9482 47.3234 45.4498 50.8264C48.9514 54.3295 54.6287 54.3295 58.1303 50.8264Z" fill="#009EAD"/>
</svg>
