<svg width="595" height="451" viewBox="0 0 595 451" fill="none" xmlns="http://www.w3.org/2000/svg">
<path d="M565.118 325.333C563.218 328.777 559.68 331.268 554.584 332.813C549.487 334.359 542.875 334.943 534.913 334.6C518.993 333.913 497.791 329.524 472.777 321.868C422.756 306.558 357.594 278.216 289.155 240.465C220.716 202.715 161.982 162.717 122.35 128.575C102.53 111.501 87.5082 95.9094 78.4346 82.8096C73.8972 76.2589 70.8638 70.3547 69.452 65.2182C68.0408 60.0842 68.2604 55.7625 70.16 52.3186C72.0596 48.8748 75.5979 46.3836 80.6932 44.8385C85.791 43.2927 92.4031 42.7089 100.364 43.0523C116.285 43.7391 137.487 48.1278 162.501 55.7839C212.521 71.0937 277.683 99.436 346.123 137.187C414.562 174.937 473.295 214.934 512.928 249.077C532.747 266.15 547.769 281.742 556.843 294.842C561.38 301.393 564.414 307.297 565.826 312.434C567.237 317.568 567.017 321.889 565.118 325.333Z" stroke="black"/>
<path d="M544.887 362.007C542.988 365.451 539.449 367.942 534.354 369.487C529.256 371.033 522.644 371.617 514.683 371.273C498.762 370.587 477.561 366.198 452.546 358.542C402.526 343.232 337.364 314.89 268.924 277.139C200.485 239.388 141.752 199.391 102.119 165.249C82.2998 148.175 67.2777 132.583 58.2041 119.483C53.6667 112.933 50.6333 107.029 49.2215 101.892C47.8103 96.758 48.03 92.4363 49.9296 88.9925C51.8291 85.5487 55.3674 83.0575 60.4628 81.5124C65.5605 79.9665 72.1726 79.3827 80.1339 79.7261C96.0544 80.4129 117.256 84.8017 142.27 92.4578C192.291 107.767 257.453 136.11 325.892 173.86C394.332 211.611 453.065 251.608 492.697 285.75C512.517 302.824 527.539 318.416 536.613 331.516C541.15 338.067 544.183 343.971 545.595 349.107C547.006 354.241 546.787 358.563 544.887 362.007Z" stroke="black"/>
<path d="M524.659 398.681C522.759 402.125 519.221 404.616 514.125 406.161C509.028 407.707 502.416 408.291 494.454 407.948C478.534 407.261 457.332 402.872 432.318 395.216C382.297 379.906 317.135 351.564 248.696 313.813C180.257 276.063 121.523 236.066 81.8908 201.923C62.0713 184.85 47.0492 169.258 37.9756 156.158C33.4382 149.607 30.4048 143.703 28.993 138.566C27.5818 133.432 27.8015 129.111 29.7011 125.667C31.6006 122.223 35.1389 119.732 40.2343 118.187C45.332 116.641 51.9441 116.057 59.9054 116.4C75.8259 117.087 97.0276 121.476 122.042 129.132C172.062 144.442 237.224 172.784 305.664 210.535C374.103 248.285 432.836 288.283 472.469 322.425C492.288 339.499 507.31 355.091 516.384 368.19C520.921 374.741 523.955 380.645 525.367 385.782C526.778 390.916 526.558 395.237 524.659 398.681Z" stroke="black"/>
</svg>
