<svg width="34" height="35" viewBox="0 0 34 35" fill="none" xmlns="http://www.w3.org/2000/svg">
<circle cx="17" cy="17.5039" r="17" fill="black"/>
<path d="M9.31776 25.5039H12.8131V14.1883H9.31776V25.5039Z" fill="#009EAD"/>
<path d="M9 10.5758C9 11.6914 9.90031 12.5945 11.0654 12.5945C12.1776 12.5945 13.0779 11.6914 13.0779 10.5758C13.0779 9.46016 12.1776 8.50391 11.0654 8.50391C9.90031 8.50391 9 9.46016 9 10.5758Z" fill="#009EAD"/>
<path d="M22.4517 25.5039H26V19.2883C26 16.2602 25.3115 13.8695 21.7632 13.8695C20.0685 13.8695 18.9034 14.8258 18.4268 15.7289H18.3738V14.1883H15.0374V25.5039H18.5327V19.9258C18.5327 18.4383 18.7975 17.0039 20.6511 17.0039C22.4517 17.0039 22.4517 18.7039 22.4517 19.9789V25.5039Z" fill="#009EAD"/>
</svg>
