<svg width="30" height="31" viewBox="0 0 30 31" fill="none" xmlns="http://www.w3.org/2000/svg">
<circle cx="15" cy="15.378" r="15" fill="white"/>
<path d="M8.22155 22.4368H11.3057V12.4524H8.22155V22.4368Z" fill="black"/>
<path d="M7.94118 9.26492C7.94118 10.2493 8.73557 11.0462 9.76361 11.0462C10.7449 11.0462 11.5393 10.2493 11.5393 9.26492C11.5393 8.28055 10.7449 7.4368 9.76361 7.4368C8.73557 7.4368 7.94118 8.28055 7.94118 9.26492Z" fill="black"/>
<path d="M19.8103 22.4368H22.9412V16.9524C22.9412 14.2805 22.3337 12.1712 19.2029 12.1712C17.7075 12.1712 16.6795 13.0149 16.2589 13.8118H16.2122V12.4524H13.2683V22.4368H16.3524V17.5149C16.3524 16.2024 16.586 14.9368 18.2216 14.9368C19.8103 14.9368 19.8103 16.4368 19.8103 17.5618V22.4368Z" fill="black"/>
</svg>
