<svg width="66" height="50" viewBox="0 0 66 50" fill="none" xmlns="http://www.w3.org/2000/svg">
<path d="M0.844372 47.2343H2.64713V48.0395H0V43.7642H2.61506V44.5729H0.833684V45.4814H2.46543V46.2795H0.844372V47.2343Z" fill="black"/>
<path fill-rule="evenodd" clip-rule="evenodd" d="M9.70853 43.7607C10.2649 43.7482 10.8002 43.9738 11.1799 44.3807C11.9638 45.2434 11.9638 46.5605 11.1799 47.4233C10.7999 47.8292 10.2645 48.0535 9.70853 48.0396H8.00909V43.7643L9.70853 43.7607ZM9.7087 47.2343C10.0473 47.2499 10.3765 47.1203 10.6136 46.878C11.0791 46.3212 11.0791 45.511 10.6136 44.9541C10.3775 44.7103 10.0476 44.5804 9.7087 44.5979H8.85364V47.2628L9.7087 47.2343Z" fill="black"/>
<path d="M18.7011 48.1286C18.2732 48.1457 17.8545 48.0007 17.5289 47.7224C17.2235 47.4529 17.0549 47.0607 17.0693 46.6536V43.7749H17.9066V46.5895C17.8949 46.7854 17.9645 46.9774 18.099 47.1203C18.4578 47.3818 18.9444 47.3818 19.3032 47.1203C19.4377 46.9774 19.5073 46.7854 19.4956 46.5895V43.7749H20.34V46.6536C20.3544 47.0607 20.1858 47.4529 19.8804 47.7224C19.5526 48.0018 19.1313 48.1468 18.7011 48.1286V48.1286Z" fill="black"/>
<path d="M27.8962 48.1284C27.2973 48.1466 26.7182 47.9126 26.3 47.4835C25.4599 46.5949 25.4599 45.2048 26.3 44.3162C26.7188 43.8884 27.2978 43.6558 27.8962 43.6749C28.2701 43.6729 28.6382 43.7674 28.965 43.9493C29.2829 44.1202 29.5487 44.3738 29.7345 44.6832L29.022 45.1071C28.9189 44.916 28.7614 44.7598 28.5695 44.6582C28.3682 44.5462 28.1407 44.4896 27.9104 44.4944C27.5354 44.4785 27.1709 44.6206 26.9057 44.8863C26.3968 45.4648 26.3968 46.3313 26.9057 46.9099C27.1675 47.1718 27.526 47.3137 27.8962 47.3018C28.1276 47.306 28.356 47.2495 28.5588 47.1379C28.7494 47.0391 28.9059 46.8851 29.0077 46.6961L29.7203 47.1165C29.5359 47.4268 29.2713 47.6816 28.9543 47.854C28.6308 48.0344 28.2665 48.1289 27.8962 48.1284L27.8962 48.1284Z" fill="black"/>
<path fill-rule="evenodd" clip-rule="evenodd" d="M37.8185 48.0395L37.5478 47.2699H35.7913L35.5312 48.0395H34.6227L36.1191 43.7642H37.1665L38.6736 48.0395H37.8185ZM36.0655 46.4826H37.2697L36.6498 44.7333L36.0655 46.4826Z" fill="black"/>
<path d="M45.7349 47.3021C45.9674 47.306 46.197 47.2495 46.4012 47.1383C46.5909 47.0382 46.747 46.8846 46.8501 46.6965L47.5626 47.1169C47.4079 47.3773 47.1959 47.599 46.9427 47.7653C46.681 47.9376 46.3861 48.0529 46.0769 48.1038L46.077 48.3211C46.1903 48.3489 46.2946 48.4053 46.3798 48.485C46.4637 48.5672 46.509 48.6811 46.5045 48.7985C46.5045 49.226 46.0556 49.4149 45.1578 49.3614V48.8056C45.5995 48.8341 45.8204 48.8056 45.8204 48.6845C45.8204 48.5634 45.6922 48.5491 45.4357 48.5313V48.1073C44.8952 48.0603 44.3943 47.8047 44.0391 47.3948C43.2861 46.4957 43.3228 45.176 44.1246 44.3201C44.5433 43.8923 45.1223 43.6597 45.7207 43.6788C46.0946 43.6768 46.4628 43.7713 46.7895 43.9532C47.108 44.1232 47.3741 44.377 47.5591 44.6871L46.8465 45.1111C46.7424 44.9207 46.5852 44.7647 46.394 44.6622C46.1913 44.5506 45.9628 44.4941 45.7314 44.4983C45.3566 44.4837 44.9926 44.6257 44.7267 44.8902C44.2178 45.4687 44.2178 46.3352 44.7267 46.9138C44.9941 47.1779 45.3594 47.3187 45.7349 47.3021L45.7349 47.3021Z" fill="black"/>
<path fill-rule="evenodd" clip-rule="evenodd" d="M55.6609 48.0395L55.3866 47.27H53.6302L53.3737 48.0395H52.4616L53.958 43.7642H55.0054L56.516 48.0395H55.6609ZM54.4104 43.2476C54.2928 43.1657 54.2109 43.1336 54.161 43.1514C54.1111 43.1692 54.0862 43.2476 54.0862 43.3937H53.4413C53.4379 43.2322 53.4596 43.0711 53.5055 42.9163C53.5356 42.8026 53.5959 42.6992 53.68 42.617C53.7511 42.5526 53.8387 42.5094 53.933 42.4923C54.0328 42.4713 54.136 42.4713 54.2358 42.4923C54.3485 42.5259 54.4554 42.5763 54.5529 42.642C54.6705 42.7239 54.756 42.756 54.8023 42.7381C54.8486 42.7203 54.87 42.6419 54.87 42.4923H55.5149C55.5214 42.6887 55.4862 42.8842 55.4115 43.0659C55.3649 43.1927 55.272 43.297 55.1515 43.3581C55.039 43.4053 54.9152 43.4189 54.7952 43.3973C54.659 43.3709 54.5286 43.3202 54.4104 43.2476ZM53.9045 46.4826H55.1087L54.5101 44.7333L53.9045 46.4826Z" fill="black"/>
<path fill-rule="evenodd" clip-rule="evenodd" d="M65.1485 47.4804C64.3928 48.2521 63.1967 48.3809 62.2941 47.7878C61.3915 47.1947 61.0351 46.0456 61.4436 45.0458C61.852 44.046 62.9112 43.4753 63.9708 43.6839C65.0305 43.8925 65.7943 44.8221 65.7933 45.9021C65.8044 46.4945 65.5712 47.0653 65.1485 47.4804L65.1485 47.4804ZM62.5869 46.9066C63.1374 47.4314 64.003 47.4314 64.5535 46.9066C65.0861 46.3413 65.0861 45.459 64.5535 44.8937C64.003 44.3689 63.1374 44.3689 62.5869 44.8937C62.0543 45.459 62.0543 46.3413 62.5869 46.9066V46.9066Z" fill="black"/>
<rect x="16.8803" y="14.3999" width="16.8803" height="6.50202" fill="#C7C3C2"/>
<rect x="13.631" y="17.6489" width="6.50202" height="16.8803" fill="#009EAD"/>
<path d="M20.1331 20.8986H0V14.4001H13.6311V0.769043H20.1331V20.8986Z" fill="#D51030"/>
<rect x="59.4979" y="0.769043" width="6.50202" height="33.7607" fill="black"/>
<path fill-rule="evenodd" clip-rule="evenodd" d="M48.9807 34.6684C39.5812 34.6684 31.9614 27.0486 31.9614 17.6492C31.9614 8.24967 39.5812 0.629883 48.9807 0.629883C58.3802 0.629883 66 8.24967 66 17.6492C65.9902 27.0446 58.3761 34.6586 48.9807 34.6684L48.9807 34.6684ZM48.9808 7.13204C43.1723 7.13204 38.4635 11.8408 38.4635 17.6493C38.4635 23.4578 43.1723 28.1665 48.9808 28.1665C54.7893 28.1665 59.498 23.4578 59.498 17.6493C59.4902 11.844 54.786 7.13988 48.9808 7.13204H48.9808Z" fill="black"/>
</svg>
