<svg width="66" height="49" viewBox="0 0 66 49" fill="none" xmlns="http://www.w3.org/2000/svg">
<path d="M0.844372 46.6123H2.64713V47.4175H0V43.1422H2.61506V43.9509H0.833684V44.8594H2.46543V45.6575H0.844372V46.6123Z" fill="white"/>
<path fill-rule="evenodd" clip-rule="evenodd" d="M9.70853 43.1386C10.2649 43.1261 10.8002 43.3517 11.1799 43.7586C11.9638 44.6213 11.9638 45.9384 11.1799 46.8012C10.7999 47.2071 10.2645 47.4314 9.70853 47.4175H8.00909V43.1422L9.70853 43.1386ZM9.7087 46.6122C10.0473 46.6278 10.3765 46.4982 10.6136 46.2559C11.0791 45.6991 11.0791 44.8889 10.6136 44.332C10.3775 44.0882 10.0476 43.9583 9.7087 43.9758H8.85364V46.6407L9.7087 46.6122Z" fill="white"/>
<path d="M18.7011 47.5064C18.2732 47.5235 17.8545 47.3785 17.5289 47.1002C17.2235 46.8307 17.0549 46.4385 17.0693 46.0314V43.1527H17.9066V45.9673C17.8949 46.1631 17.9645 46.3552 18.099 46.4981C18.4578 46.7595 18.9444 46.7595 19.3032 46.4981C19.4377 46.3552 19.5073 46.1631 19.4956 45.9673V43.1527H20.34V46.0314C20.3544 46.4385 20.1858 46.8307 19.8804 47.1002C19.5526 47.3795 19.1313 47.5246 18.7011 47.5064V47.5064Z" fill="white"/>
<path d="M27.8962 47.5065C27.2973 47.5247 26.7182 47.2908 26.3 46.8616C25.4599 45.973 25.4599 44.583 26.3 43.6944C26.7188 43.2665 27.2978 43.0339 27.8962 43.0531C28.2701 43.051 28.6382 43.1455 28.965 43.3274C29.2829 43.4983 29.5487 43.7519 29.7345 44.0613L29.022 44.4853C28.9189 44.2942 28.7614 44.1379 28.5695 44.0364C28.3682 43.9243 28.1407 43.8678 27.9104 43.8725C27.5354 43.8566 27.1709 43.9988 26.9057 44.2644C26.3968 44.843 26.3968 45.7095 26.9057 46.288C27.1675 46.55 27.526 46.6918 27.8962 46.6799C28.1276 46.6841 28.356 46.6276 28.5588 46.5161C28.7494 46.4172 28.9059 46.2633 29.0077 46.0743L29.7203 46.4947C29.5359 46.8049 29.2713 47.0597 28.9543 47.2322C28.6308 47.4126 28.2665 47.507 27.8962 47.5065L27.8962 47.5065Z" fill="white"/>
<path fill-rule="evenodd" clip-rule="evenodd" d="M37.8185 47.4175L37.5478 46.6479H35.7913L35.5312 47.4175H34.6227L36.1191 43.1422H37.1665L38.6736 47.4175H37.8185ZM36.0655 45.8606H37.2697L36.6498 44.1113L36.0655 45.8606Z" fill="white"/>
<path d="M45.7349 46.68C45.9674 46.6838 46.197 46.6273 46.4012 46.5161C46.5909 46.416 46.747 46.2624 46.8501 46.0743L47.5626 46.4947C47.4079 46.7551 47.1959 46.9769 46.9427 47.1431C46.681 47.3154 46.3861 47.4307 46.0769 47.4816L46.077 47.6989C46.1903 47.7267 46.2946 47.7831 46.3798 47.8628C46.4637 47.9451 46.509 48.0589 46.5045 48.1763C46.5045 48.6039 46.0556 48.7927 45.1578 48.7393V48.1835C45.5995 48.212 45.8204 48.1835 45.8204 48.0623C45.8204 47.9412 45.6922 47.9269 45.4357 47.9091V47.4852C44.8952 47.4381 44.3943 47.1826 44.0391 46.7726C43.2861 45.8735 43.3228 44.5538 44.1246 43.698C44.5433 43.2701 45.1223 43.0375 45.7207 43.0567C46.0946 43.0546 46.4628 43.1491 46.7895 43.331C47.108 43.5011 47.3741 43.7548 47.5591 44.0649L46.8465 44.4889C46.7424 44.2986 46.5852 44.1426 46.394 44.04C46.1913 43.9284 45.9628 43.8719 45.7314 43.8761C45.3566 43.8615 44.9926 44.0035 44.7267 44.268C44.2178 44.8466 44.2178 45.7131 44.7267 46.2916C44.9941 46.5558 45.3594 46.6965 45.7349 46.68L45.7349 46.68Z" fill="white"/>
<path fill-rule="evenodd" clip-rule="evenodd" d="M55.6609 47.4174L55.3866 46.6479H53.6302L53.3737 47.4174H52.4616L53.958 43.1421H55.0054L56.516 47.4174H55.6609ZM54.4104 42.6255C54.2928 42.5436 54.2109 42.5115 54.161 42.5293C54.1111 42.5471 54.0862 42.6255 54.0862 42.7716H53.4413C53.4379 42.6101 53.4596 42.449 53.5055 42.2942C53.5356 42.1805 53.5959 42.0771 53.68 41.9949C53.7511 41.9305 53.8387 41.8873 53.933 41.8702C54.0328 41.8492 54.136 41.8492 54.2358 41.8702C54.3485 41.9038 54.4554 41.9542 54.5529 42.0198C54.6705 42.1018 54.756 42.1339 54.8023 42.116C54.8486 42.0982 54.87 42.0198 54.87 41.8702H55.5149C55.5214 42.0666 55.4862 42.2621 55.4115 42.4438C55.3649 42.5706 55.272 42.6749 55.1515 42.736C55.039 42.7832 54.9152 42.7968 54.7952 42.7751C54.659 42.7488 54.5286 42.6981 54.4104 42.6255ZM53.9045 45.8605H55.1087L54.5101 44.1112L53.9045 45.8605Z" fill="white"/>
<path fill-rule="evenodd" clip-rule="evenodd" d="M65.1485 46.8582C64.3928 47.6299 63.1967 47.7587 62.2941 47.1655C61.3915 46.5724 61.0351 45.4233 61.4436 44.4235C61.852 43.4237 62.9112 42.853 63.9708 43.0616C65.0305 43.2702 65.7943 44.1998 65.7933 45.2799C65.8044 45.8722 65.5712 46.4431 65.1485 46.8582L65.1485 46.8582ZM62.5869 46.2844C63.1374 46.8092 64.003 46.8092 64.5535 46.2844C65.0861 45.7191 65.0861 44.8368 64.5535 44.2714C64.003 43.7466 63.1374 43.7466 62.5869 44.2714C62.0543 44.8368 62.0543 45.7191 62.5869 46.2844V46.2844Z" fill="white"/>
<rect x="16.8803" y="13.7777" width="16.8803" height="6.50202" fill="#C7C3C2"/>
<rect x="13.631" y="17.027" width="6.50202" height="16.8803" fill="#009EAD"/>
<path d="M20.1331 20.2763H0V13.7779H13.6311V0.14679H20.1331V20.2763Z" fill="#D51030"/>
<rect x="59.4979" y="0.14679" width="6.50202" height="33.7607" fill="white"/>
<path fill-rule="evenodd" clip-rule="evenodd" d="M48.9807 34.0464C39.5812 34.0464 31.9614 26.4266 31.9614 17.0271C31.9614 7.6276 39.5812 0.0078125 48.9807 0.0078125C58.3802 0.0078125 66 7.6276 66 17.0271C65.9902 26.4225 58.3761 34.0365 48.9807 34.0464L48.9807 34.0464ZM48.9808 6.50997C43.1723 6.50997 38.4635 11.2187 38.4635 17.0272C38.4635 22.8357 43.1723 27.5445 48.9808 27.5445C54.7893 27.5445 59.498 22.8357 59.498 17.0272C59.4902 11.222 54.786 6.51781 48.9808 6.50997H48.9808Z" fill="white"/>
</svg>
