<svg width="30" height="31" viewBox="0 0 30 31" fill="none" xmlns="http://www.w3.org/2000/svg">
<circle cx="15" cy="15.378" r="15" fill="white"/>
<path d="M21.9961 11.8695C22.6854 11.3525 23.3058 10.7321 23.7884 10.0082C23.168 10.284 22.4442 10.4908 21.7204 10.5597C22.4786 10.1116 23.0301 9.42231 23.3058 8.56063C22.6165 8.97424 21.8238 9.28444 21.031 9.45677C20.3417 8.73297 19.4111 8.31937 18.3771 8.31937C16.378 8.31937 14.758 9.93931 14.758 11.9384C14.758 12.2141 14.7925 12.4899 14.8614 12.7656C11.8628 12.5933 9.1744 11.1457 7.38212 8.97424C7.07192 9.49124 6.89959 10.1116 6.89959 10.801C6.89959 12.0418 7.51999 13.1447 8.51953 13.7996C7.93359 13.7651 7.34766 13.6273 6.86512 13.3515V13.386C6.86512 15.1438 8.10593 16.5914 9.76034 16.9361C9.48461 17.005 9.13994 17.074 8.82973 17.074C8.58847 17.074 8.38166 17.0395 8.1404 17.005C8.58847 18.4526 9.93267 19.4866 11.5182 19.5211C10.2773 20.4862 8.72633 21.0721 7.03745 21.0721C6.72725 21.0721 6.45152 21.0377 6.17578 21.0032C7.76126 22.0372 9.65694 22.6231 11.725 22.6231C18.3771 22.6231 21.9961 17.1429 21.9961 12.352C21.9961 12.1797 21.9961 12.0418 21.9961 11.8695Z" fill="black"/>
</svg>
